# xmcd CD database file
#
# Track frame offsets:
#	150
#	19035
#	30600
#	43062
#	55515
#	75531
#	90842
#	106257
#	124026
#	140993
#	162132
#	185149
#	203083
#	217252
#	228945
#	244509
#	259270
#	289139
#
# Disc length: 4038 seconds
#
# Revision: 0
# Processed by: cddbd v1.5.2PL0 Copyright (c) Steve Scherf et al.
# Submitted via: CDex 1.79
#
DISCID=f70fc412
DTITLE=James Moody - Flute 'n The Blues and Moody's Mood for Love
DYEAR=1900
DGENRE=Jazz
TTITLE0=Flute 'n The Blues
TTITLE1=Birdland Story
TTITLE2=It Could Happen To You
TTITLE3=I Cover The Waterfront
TTITLE4=Body And Soul
TTITLE5=Breaking The Blues
TTITLE6=Parker's Mood
TTITLE7=Easy Living
TTITLE8=Boo's Tune
TTITLE9=Richard's Blues
TTITLE10=Foolin' The Blues
TTITLE11=Plus Eight
TTITLE12=I'm In The Mood For Love
TTITLE13=Phil Up
TTITLE14=You Go To My Head
TTITLE15=Billie's Bounce
TTITLE16=Stardust
TTITLE17=Mean To Me
EXTD=
EXTT0=
EXTT1=
EXTT2=
EXTT3=
EXTT4=
EXTT5=
EXTT6=
EXTT7=
EXTT8=
EXTT9=
EXTT10=
EXTT11=
EXTT12=
EXTT13=
EXTT14=
EXTT15=
EXTT16=
EXTT17=
PLAYORDER=
